<?xml version="1.0" standalone="no"?>
<!DOCTYPE svg PUBLIC "-//W3C//DTD SVG 20010904//EN"
 "http://www.w3.org/TR/2001/REC-SVG-20010904/DTD/svg10.dtd">
<svg version="1.0" xmlns="http://www.w3.org/2000/svg"
 width="384.000000pt" height="384.000000pt" viewBox="0 0 384.000000 384.000000"
 preserveAspectRatio="xMidYMid meet">
<metadata>
Created by potrace 1.14, written by Peter Selinger 2001-2017
</metadata>
<g transform="translate(0.000000,384.000000) scale(0.100000,-0.100000)"
fill="#000000" stroke="none">
<path d="M771 2669 c-100 -9 -177 -43 -204 -89 -10 -17 -21 -54 -24 -83 -4
-42 0 -60 19 -97 35 -64 91 -91 213 -101 163 -14 293 -73 480 -221 197 -155
340 -243 464 -285 146 -50 297 -29 362 49 l26 31 72 -11 c217 -36 343 -127
387 -280 38 -131 -27 -262 -161 -324 -74 -34 -191 -32 -261 4 -60 31 -69 42
-79 88 -10 51 -44 106 -72 119 -30 14 -29 14 -47 -5 -34 -34 0 -144 51 -166
15 -7 48 -27 73 -44 73 -52 126 -69 210 -68 52 1 93 8 132 23 110 42 199 152
214 262 7 51 -14 146 -46 209 -57 112 -208 201 -392 230 -71 12 -78 15 -78 36
0 48 113 104 208 104 92 -1 132 -25 272 -169 154 -158 186 -175 305 -169 91 5
142 27 152 67 14 57 -62 63 -129 10 -87 -68 -165 -28 -346 178 -47 54 -79 80
-127 104 -59 29 -71 31 -138 27 -67 -4 -100 -15 -199 -66 -5 -2 -8 9 -8 24 0
40 72 129 141 174 76 49 131 61 234 50 144 -15 224 -69 300 -203 96 -166 159
-204 264 -156 25 12 57 27 70 33 29 13 81 82 81 107 0 35 -12 49 -42 49 -38 0
-105 -64 -114 -109 -10 -50 -58 -65 -114 -36 -20 10 -48 47 -85 110 -68 116
-125 174 -213 217 -64 32 -71 33 -187 33 -116 0 -122 -1 -182 -32 -63 -33
-119 -81 -165 -142 -25 -32 -26 -33 -54 -18 -17 9 -59 21 -94 27 -118 21 -196
66 -491 281 -180 132 -278 186 -384 212 -80 20 -192 26 -294 16z"/>
</g>
</svg>
